<mxfile host="drawio-plugin" modified="2023-10-18T14:07:17.222Z" agent="5.0 (Windows NT 6.2; Win64; x64) AppleWebKit/537.36 (KHTML, like Gecko) Chrome/104.0.5112.102 Safari/537.36" etag="Cj06encJLOOEMD-S7Vis" version="20.5.3" type="embed"><diagram name="Página-1" id="1WaEkd88R1eabdke-Tcu"><mxGraphModel dx="1207" dy="-813" grid="1" gridSize="10" guides="1" tooltips="1" connect="1" arrows="1" fold="1" page="1" pageScale="1" pageWidth="827" pageHeight="1169" math="0" shadow="0"><root><mxCell id="0"/><mxCell id="1" parent="0"/><mxCell id="2" value="bigg:EnergyMeter" style="rounded=0;whiteSpace=wrap;html=1;snapToPoint=1;points=[[0.1,0],[0.2,0],[0.3,0],[0.4,0],[0.5,0],[0.6,0],[0.7,0],[0.8,0],[0.9,0],[0,0.1],[0,0.3],[0,0.5],[0,0.7],[0,0.9],[0.1,1],[0.2,1],[0.3,1],[0.4,1],[0.5,1],[0.6,1],[0.7,1],[0.8,1],[0.9,1],[1,0.1],[1,0.3],[1,0.5],[1,0.7],[1,0.9]];fillColor=#dae8fc;strokeColor=#6c8ebf;" parent="1" vertex="1"><mxGeometry x="680.5" y="1457.53" width="100" height="30" as="geometry"/></mxCell><mxCell id="3" style="rounded=0;orthogonalLoop=1;jettySize=auto;html=1;edgeStyle=orthogonalEdgeStyle;" parent="1" target="2" edge="1"><mxGeometry relative="1" as="geometry"><mxPoint x="730.6470588235295" y="1590.0005882352941" as="sourcePoint"/></mxGeometry></mxCell><mxCell id="4" value="bigg4tariff:appliesTo" style="edgeLabel;html=1;align=center;verticalAlign=middle;resizable=0;points=[];" parent="3" connectable="0" vertex="1"><mxGeometry x="-0.0969" y="-9" relative="1" as="geometry"><mxPoint y="-9" as="offset"/></mxGeometry></mxCell><mxCell id="5" style="edgeStyle=orthogonalEdgeStyle;rounded=0;orthogonalLoop=1;jettySize=auto;html=1;" parent="1" source="7" target="9" edge="1"><mxGeometry relative="1" as="geometry"/></mxCell><mxCell id="6" value="s4watr:hasDuration&lt;br&gt;s4watr:hasPeriod&lt;br&gt;s4watr:hasBillingPeriod" style="edgeLabel;html=1;align=center;verticalAlign=middle;resizable=0;points=[];" parent="5" connectable="0" vertex="1"><mxGeometry x="-0.1494" y="-2" relative="1" as="geometry"><mxPoint x="2" y="-27" as="offset"/></mxGeometry></mxCell><mxCell id="7" value="s4watr:Tariff" style="rounded=0;whiteSpace=wrap;html=1;snapToPoint=1;points=[[0.1,0],[0.2,0],[0.3,0],[0.4,0],[0.5,0],[0.6,0],[0.7,0],[0.8,0],[0.9,0],[0,0.1],[0,0.3],[0,0.5],[0,0.7],[0,0.9],[0.1,1],[0.2,1],[0.3,1],[0.4,1],[0.5,1],[0.6,1],[0.7,1],[0.8,1],[0.9,1],[1,0.1],[1,0.3],[1,0.5],[1,0.7],[1,0.9]];fillColor=#dae8fc;strokeColor=#6c8ebf;" parent="1" vertex="1"><mxGeometry x="617.5" y="1650" width="226" height="30" as="geometry"/></mxCell><mxCell id="8" value="s4watr:hasStartTimestamp: xsd:dateTime&lt;br&gt;s4watr:hasBillingDate: xsd:dateTime" style="rounded=0;whiteSpace=wrap;html=1;snapToPoint=1;points=[[0.1,0],[0.2,0],[0.3,0],[0.4,0],[0.5,0],[0.6,0],[0.7,0],[0.8,0],[0.9,0],[0,0.1],[0,0.3],[0,0.5],[0,0.7],[0,0.9],[0.1,1],[0.2,1],[0.3,1],[0.4,1],[0.5,1],[0.6,1],[0.7,1],[0.8,1],[0.9,1],[1,0.1],[1,0.3],[1,0.5],[1,0.7],[1,0.9]];dashed=1;fillColor=#FFFFFF;" parent="1" vertex="1"><mxGeometry x="617.5" y="1680" width="226" height="50" as="geometry"/></mxCell><mxCell id="9" value="time:TemporalDuration" style="rounded=0;whiteSpace=wrap;html=1;snapToPoint=1;points=[[0.1,0],[0.2,0],[0.3,0],[0.4,0],[0.5,0],[0.6,0],[0.7,0],[0.8,0],[0.9,0],[0,0.1],[0,0.3],[0,0.5],[0,0.7],[0,0.9],[0.1,1],[0.2,1],[0.3,1],[0.4,1],[0.5,1],[0.6,1],[0.7,1],[0.8,1],[0.9,1],[1,0.1],[1,0.3],[1,0.5],[1,0.7],[1,0.9]];" parent="1" vertex="1"><mxGeometry x="1026.8600000000001" y="1650" width="140" height="30" as="geometry"/></mxCell><mxCell id="10" style="edgeStyle=orthogonalEdgeStyle;rounded=0;orthogonalLoop=1;jettySize=auto;html=1;endArrow=block;endFill=0;" parent="1" source="11" target="8" edge="1"><mxGeometry relative="1" as="geometry"><Array as="points"/></mxGeometry></mxCell><mxCell id="11" value="s4watr:ConsumptionBasedTariff" style="rounded=0;whiteSpace=wrap;html=1;snapToPoint=1;points=[[0.1,0],[0.2,0],[0.3,0],[0.4,0],[0.5,0],[0.6,0],[0.7,0],[0.8,0],[0.9,0],[0,0.1],[0,0.3],[0,0.5],[0,0.7],[0,0.9],[0.1,1],[0.2,1],[0.3,1],[0.4,1],[0.5,1],[0.6,1],[0.7,1],[0.8,1],[0.9,1],[1,0.1],[1,0.3],[1,0.5],[1,0.7],[1,0.9]];fillColor=#dae8fc;strokeColor=#6c8ebf;" parent="1" vertex="1"><mxGeometry x="617.5" y="1810" width="226" height="30" as="geometry"/></mxCell><mxCell id="12" value="s4watr:forVolumeConsumption:&lt;br&gt;s4watr:forFinancialConsumption:&amp;nbsp;" style="rounded=0;whiteSpace=wrap;html=1;snapToPoint=1;points=[[0.1,0],[0.2,0],[0.3,0],[0.4,0],[0.5,0],[0.6,0],[0.7,0],[0.8,0],[0.9,0],[0,0.1],[0,0.3],[0,0.5],[0,0.7],[0,0.9],[0.1,1],[0.2,1],[0.3,1],[0.4,1],[0.5,1],[0.6,1],[0.7,1],[0.8,1],[0.9,1],[1,0.1],[1,0.3],[1,0.5],[1,0.7],[1,0.9]];dashed=1;fillColor=#FFFFFF;" parent="1" vertex="1"><mxGeometry x="617.5" y="1840" width="226" height="50" as="geometry"/></mxCell><mxCell id="13" style="edgeStyle=orthogonalEdgeStyle;rounded=0;orthogonalLoop=1;jettySize=auto;html=1;endArrow=block;endFill=0;" parent="1" source="16" target="8" edge="1"><mxGeometry relative="1" as="geometry"><Array as="points"><mxPoint x="1004" y="1770"/><mxPoint x="730" y="1770"/></Array></mxGeometry></mxCell><mxCell id="14" value="" style="edgeStyle=orthogonalEdgeStyle;rounded=0;orthogonalLoop=1;jettySize=auto;html=1;" parent="1" source="19" target="23" edge="1"><mxGeometry relative="1" as="geometry"/></mxCell><mxCell id="15" value="s4watr:forWeekDay" style="edgeLabel;html=1;align=center;verticalAlign=middle;resizable=0;points=[];" parent="14" connectable="0" vertex="1"><mxGeometry x="-0.2353" y="1" relative="1" as="geometry"><mxPoint as="offset"/></mxGeometry></mxCell><mxCell id="16" value="s4watr:TimeBasedTariff" style="rounded=0;whiteSpace=wrap;html=1;snapToPoint=1;points=[[0.1,0],[0.2,0],[0.3,0],[0.4,0],[0.5,0],[0.6,0],[0.7,0],[0.8,0],[0.9,0],[0,0.1],[0,0.3],[0,0.5],[0,0.7],[0,0.9],[0.1,1],[0.2,1],[0.3,1],[0.4,1],[0.5,1],[0.6,1],[0.7,1],[0.8,1],[0.9,1],[1,0.1],[1,0.3],[1,0.5],[1,0.7],[1,0.9]];fillColor=#dae8fc;strokeColor=#6c8ebf;" parent="1" vertex="1"><mxGeometry x="891" y="1810" width="226" height="30" as="geometry"/></mxCell><mxCell id="17" value="" style="edgeStyle=orthogonalEdgeStyle;rounded=0;orthogonalLoop=1;jettySize=auto;html=1;" parent="1" source="19" target="24" edge="1"><mxGeometry relative="1" as="geometry"><mxPoint x="1046.4736842105262" y="1949.6842105263158" as="targetPoint"/><Array as="points"><mxPoint x="1004" y="1915"/></Array></mxGeometry></mxCell><mxCell id="18" value="s4watr:forAbsoluteTimeAtDay" style="edgeLabel;html=1;align=center;verticalAlign=middle;resizable=0;points=[];" parent="17" connectable="0" vertex="1"><mxGeometry x="0.5782" y="2" relative="1" as="geometry"><mxPoint x="-60" y="2" as="offset"/></mxGeometry></mxCell><mxCell id="19" value="s4watr:forDayInMonth: xsd:gDay&amp;nbsp;" style="rounded=0;whiteSpace=wrap;html=1;snapToPoint=1;points=[[0.1,0],[0.2,0],[0.3,0],[0.4,0],[0.5,0],[0.6,0],[0.7,0],[0.8,0],[0.9,0],[0,0.1],[0,0.3],[0,0.5],[0,0.7],[0,0.9],[0.1,1],[0.2,1],[0.3,1],[0.4,1],[0.5,1],[0.6,1],[0.7,1],[0.8,1],[0.9,1],[1,0.1],[1,0.3],[1,0.5],[1,0.7],[1,0.9]];dashed=1;fillColor=#FFFFFF;" parent="1" vertex="1"><mxGeometry x="891" y="1840" width="226" height="30" as="geometry"/></mxCell><mxCell id="20" style="edgeStyle=orthogonalEdgeStyle;rounded=0;orthogonalLoop=1;jettySize=auto;html=1;endArrow=block;endFill=0;" parent="1" source="21" target="8" edge="1"><mxGeometry relative="1" as="geometry"><Array as="points"><mxPoint x="460" y="1770"/><mxPoint x="730" y="1770"/></Array></mxGeometry></mxCell><mxCell id="21" value="s4watr:ThresholdBasedTariff" style="rounded=0;whiteSpace=wrap;html=1;snapToPoint=1;points=[[0.1,0],[0.2,0],[0.3,0],[0.4,0],[0.5,0],[0.6,0],[0.7,0],[0.8,0],[0.9,0],[0,0.1],[0,0.3],[0,0.5],[0,0.7],[0,0.9],[0.1,1],[0.2,1],[0.3,1],[0.4,1],[0.5,1],[0.6,1],[0.7,1],[0.8,1],[0.9,1],[1,0.1],[1,0.3],[1,0.5],[1,0.7],[1,0.9]];fillColor=#dae8fc;strokeColor=#6c8ebf;" parent="1" vertex="1"><mxGeometry x="346.5" y="1810" width="226" height="30" as="geometry"/></mxCell><mxCell id="22" value="s4watr:forVolumeFlow:&amp;nbsp;" style="rounded=0;whiteSpace=wrap;html=1;snapToPoint=1;points=[[0.1,0],[0.2,0],[0.3,0],[0.4,0],[0.5,0],[0.6,0],[0.7,0],[0.8,0],[0.9,0],[0,0.1],[0,0.3],[0,0.5],[0,0.7],[0,0.9],[0.1,1],[0.2,1],[0.3,1],[0.4,1],[0.5,1],[0.6,1],[0.7,1],[0.8,1],[0.9,1],[1,0.1],[1,0.3],[1,0.5],[1,0.7],[1,0.9]];dashed=1;fillColor=#FFFFFF;" parent="1" vertex="1"><mxGeometry x="346.5" y="1840" width="226" height="30" as="geometry"/></mxCell><mxCell id="23" value="time:DayOfWeek" style="rounded=0;whiteSpace=wrap;html=1;snapToPoint=1;points=[[0.1,0],[0.2,0],[0.3,0],[0.4,0],[0.5,0],[0.6,0],[0.7,0],[0.8,0],[0.9,0],[0,0.1],[0,0.3],[0,0.5],[0,0.7],[0,0.9],[0.1,1],[0.2,1],[0.3,1],[0.4,1],[0.5,1],[0.6,1],[0.7,1],[0.8,1],[0.9,1],[1,0.1],[1,0.3],[1,0.5],[1,0.7],[1,0.9]];" parent="1" vertex="1"><mxGeometry x="1298.98" y="1840" width="114" height="30" as="geometry"/></mxCell><mxCell id="24" value="time:Interval" style="rounded=0;whiteSpace=wrap;html=1;snapToPoint=1;points=[[0.1,0],[0.2,0],[0.3,0],[0.4,0],[0.5,0],[0.6,0],[0.7,0],[0.8,0],[0.9,0],[0,0.1],[0,0.3],[0,0.5],[0,0.7],[0,0.9],[0.1,1],[0.2,1],[0.3,1],[0.4,1],[0.5,1],[0.6,1],[0.7,1],[0.8,1],[0.9,1],[1,0.1],[1,0.3],[1,0.5],[1,0.7],[1,0.9]];" parent="1" vertex="1"><mxGeometry x="1223" y="1900" width="114" height="30" as="geometry"/></mxCell><mxCell id="25" value="&lt;div&gt;&lt;b&gt;bigg4tariff&lt;/b&gt;: http://bigg-project.eu/ld/bigg4tariff#&lt;/div&gt;&lt;div&gt;&lt;/div&gt;&lt;div&gt;&lt;b&gt;bigg&lt;/b&gt;: http://bigg-project.eu/ld/ontology#&lt;/div&gt;&lt;div&gt;&lt;/div&gt;&lt;b&gt;&lt;/b&gt;&lt;b&gt;saref:&lt;/b&gt;&amp;nbsp;https://saref.etsi.org/core/&lt;br&gt;&lt;b&gt;s4watr: &lt;/b&gt;https://saref.etsi.org/saref4watr/&lt;br&gt;&lt;span style=&quot;border-color: var(--border-color);&quot;&gt;&lt;b style=&quot;border-color: var(--border-color);&quot;&gt;time:&amp;nbsp;&lt;/b&gt;http://www.w3.org/2006/time#&lt;br&gt;&lt;b&gt;dcterms:&lt;/b&gt;&amp;nbsp;http://purl.org/dc/elements/1.1/&lt;br&gt;&lt;div&gt;&lt;b&gt;rdf:&amp;nbsp;&lt;/b&gt;http://www.w3.org/1999/02/22-rdf-syntax-ns#&lt;/div&gt;&lt;div&gt;&lt;b&gt;rdfs:&amp;nbsp;&lt;/b&gt;http://www.w3.org/2000/01/rdf-schema#&lt;/div&gt;&lt;div&gt;&lt;b&gt;owl:&lt;/b&gt;&amp;nbsp;http://www.w3.org/2002/07/owl#&lt;/div&gt;&lt;div&gt;&lt;b&gt;xsd:&amp;nbsp;&lt;/b&gt;http://www.w3.org/2001/XMLSchema#&lt;/div&gt;&lt;/span&gt;" style="shape=note;whiteSpace=wrap;html=1;backgroundOutline=1;darkOpacity=0.05;fillColor=#FFFFFF;" parent="1" vertex="1"><mxGeometry x="232" y="1420" width="338" height="150" as="geometry"/></mxCell><mxCell id="26" value="&lt;div&gt;&lt;b&gt;dcterms:creator:&lt;/b&gt;&amp;nbsp;Edgar Martínez-Sarmiento&lt;/div&gt;&lt;div&gt;&lt;div&gt;&lt;b&gt;dc&lt;/b&gt;&lt;b&gt;terms&lt;/b&gt;&lt;b&gt;:contributor&lt;/b&gt;:&amp;nbsp;Eloi Gabaldon&lt;/div&gt;&lt;div&gt;&lt;b&gt;dc&lt;/b&gt;&lt;b&gt;terms&lt;/b&gt;&lt;b&gt;:contributor&lt;/b&gt;:&amp;nbsp;Guillaume Picinbono&lt;/div&gt;&lt;div&gt;&lt;b&gt;dc&lt;/b&gt;&lt;b&gt;terms&lt;/b&gt;&lt;b&gt;:contributor&lt;/b&gt;:&amp;nbsp;Nicolas Bus&lt;/div&gt;&lt;div&gt;&lt;b&gt;dc&lt;/b&gt;&lt;b&gt;terms&lt;/b&gt;&lt;b&gt;:contributor&lt;/b&gt;:&amp;nbsp;Stoyan Danov&lt;/div&gt;&lt;div&gt;&lt;b&gt;dc&lt;/b&gt;&lt;b&gt;terms&lt;/b&gt;&lt;b&gt;:contributor:&amp;nbsp;&lt;/b&gt;Jordi Carbonell&lt;/div&gt;&lt;/div&gt;&lt;div&gt;&lt;b&gt;owl:versionInfo:&lt;/b&gt;&amp;nbsp;1.0.0&lt;/div&gt;&lt;div&gt;&lt;b&gt;dcterms:title:&lt;/b&gt;&amp;nbsp;The BIGG for tariff ontology extension&lt;/div&gt;" style="shape=document;whiteSpace=wrap;html=1;boundedLbl=1;labelBackgroundColor=#ffffff;strokeColor=#000000;fontSize=12;fontColor=#000000;size=0.23333333333333334;fillColor=#FFFFFF;" parent="1" vertex="1"><mxGeometry x="232" y="1590" width="310" height="190" as="geometry"/></mxCell><mxCell id="27" value="bigg4tariff:Tariff" style="rounded=0;whiteSpace=wrap;html=1;snapToPoint=1;points=[[0.1,0],[0.2,0],[0.3,0],[0.4,0],[0.5,0],[0.6,0],[0.7,0],[0.8,0],[0.9,0],[0,0.1],[0,0.3],[0,0.5],[0,0.7],[0,0.9],[0.1,1],[0.2,1],[0.3,1],[0.4,1],[0.5,1],[0.6,1],[0.7,1],[0.8,1],[0.9,1],[1,0.1],[1,0.3],[1,0.5],[1,0.7],[1,0.9]];fillColor=#dae8fc;strokeColor=#6c8ebf;" vertex="1" parent="1"><mxGeometry x="680" y="1570" width="100" height="30" as="geometry"/></mxCell><mxCell id="28" style="edgeStyle=orthogonalEdgeStyle;rounded=0;orthogonalLoop=1;jettySize=auto;html=1;endArrow=block;endFill=0;entryX=0.5;entryY=0;entryDx=0;entryDy=0;exitX=0.5;exitY=1;exitDx=0;exitDy=0;" edge="1" parent="1" source="27" target="7"><mxGeometry relative="1" as="geometry"><Array as="points"/><mxPoint x="740.6470588235295" y="1739.4705882352941" as="sourcePoint"/><mxPoint x="740.6470588235295" y="1819.4705882352941" as="targetPoint"/></mxGeometry></mxCell></root></mxGraphModel></diagram></mxfile>